<svg width="28" height="28" viewBox="0 0 28 28" fill="none" xmlns="http://www.w3.org/2000/svg">
<circle cx="14" cy="14" r="14" fill="#ED7EA3"/>
<path d="M18.3399 14.5833C18.2116 14.5833 18.0774 14.5425 17.9491 14.5133C17.6892 14.4561 17.4338 14.38 17.1849 14.2858C16.9143 14.1874 16.6169 14.1925 16.3498 14.3002C16.0827 14.4079 15.8649 14.6105 15.7383 14.8692L15.6099 15.1317C15.0418 14.8156 14.5197 14.4231 14.0583 13.965C13.6002 13.5036 13.2077 12.9815 12.8916 12.4133L13.1366 12.25C13.3952 12.1234 13.5979 11.9056 13.7056 11.6385C13.8133 11.3714 13.8184 11.074 13.7199 10.8033C13.6273 10.5539 13.5513 10.2986 13.4924 10.0392C13.4633 9.91084 13.4399 9.77667 13.4224 9.6425C13.3516 9.23162 13.1364 8.85952 12.8155 8.59323C12.4947 8.32693 12.0893 8.18394 11.6724 8.19H9.92244C9.67104 8.18764 9.42208 8.23948 9.19252 8.34198C8.96295 8.44448 8.75817 8.59524 8.5921 8.784C8.42604 8.97276 8.3026 9.19508 8.23018 9.43584C8.15776 9.67659 8.13807 9.93012 8.17244 10.1792C8.4832 12.623 9.59929 14.8936 11.3444 16.6324C13.0895 18.3712 15.3642 19.479 17.8091 19.7808H18.0308C18.4609 19.7815 18.8763 19.6236 19.1974 19.3375C19.382 19.1724 19.5294 18.9701 19.63 18.7439C19.7305 18.5176 19.7819 18.2726 19.7808 18.025V16.275C19.7736 15.8698 19.6261 15.4797 19.3633 15.1711C19.1005 14.8626 18.7388 14.6549 18.3399 14.5833ZM18.6316 18.0833C18.6315 18.1662 18.6138 18.248 18.5796 18.3235C18.5454 18.3989 18.4955 18.4662 18.4333 18.5208C18.3683 18.5774 18.2921 18.6197 18.2097 18.6448C18.1272 18.6699 18.0404 18.6774 17.9549 18.6667C15.7703 18.3866 13.7411 17.3871 12.1874 15.826C10.6336 14.2649 9.64384 12.231 9.3741 10.045C9.36482 9.95956 9.37296 9.87311 9.39802 9.7909C9.42309 9.70868 9.46456 9.63241 9.51994 9.56667C9.5746 9.50445 9.64189 9.45458 9.71732 9.42038C9.79276 9.38618 9.87461 9.36844 9.95744 9.36834H11.7074C11.8431 9.36532 11.9756 9.40968 12.082 9.4938C12.1885 9.57791 12.2623 9.6965 12.2908 9.82917C12.3141 9.98862 12.3433 10.1461 12.3783 10.3017C12.4457 10.6092 12.5353 10.9114 12.6466 11.2058L11.8299 11.585C11.7601 11.617 11.6973 11.6626 11.6451 11.7189C11.5929 11.7753 11.5524 11.8414 11.5258 11.9135C11.4993 11.9856 11.4872 12.0622 11.4903 12.139C11.4935 12.2158 11.5118 12.2912 11.5441 12.3608C12.3836 14.1591 13.8292 15.6046 15.6274 16.4442C15.7695 16.5025 15.9288 16.5025 16.0708 16.4442C16.1435 16.4181 16.2104 16.3779 16.2675 16.3259C16.3245 16.2738 16.3707 16.2109 16.4033 16.1408L16.7649 15.3242C17.0665 15.432 17.3743 15.5216 17.6866 15.5925C17.8422 15.6275 17.9997 15.6567 18.1591 15.68C18.2918 15.7085 18.4104 15.7823 18.4945 15.8888C18.5786 15.9952 18.623 16.1277 18.6199 16.2633L18.6316 18.0833Z" fill="white"/>
</svg>
