<svg width="29" height="28" viewBox="0 0 29 28" fill="none" xmlns="http://www.w3.org/2000/svg">
<rect x="0.614502" width="28" height="28" rx="14" fill="#ED7EA3"/>
<path fill-rule="evenodd" clip-rule="evenodd" d="M21.4616 8.24833C22.2112 8.45014 22.8022 9.04116 23.0041 9.79074C23.3788 11.1602 23.3644 14.0144 23.3644 14.0144C23.3644 14.0144 23.3644 16.8541 23.0041 18.2236C22.8022 18.9732 22.2112 19.5642 21.4616 19.766C20.0922 20.1264 14.6145 20.1264 14.6145 20.1264C14.6145 20.1264 9.15114 20.1264 7.76729 19.7516C7.01771 19.5498 6.42669 18.9587 6.22488 18.2092C5.8645 16.8541 5.8645 14 5.8645 14C5.8645 14 5.8645 11.1602 6.22488 9.79074C6.42669 9.04116 7.03212 8.43572 7.76729 8.23391C9.13673 7.87354 14.6145 7.87354 14.6145 7.87354C14.6145 7.87354 20.0922 7.87354 21.4616 8.24833ZM17.4254 14L12.8702 16.6235V11.3764L17.4254 14Z" fill="white"/>
</svg>
