<?xml version="1.0" encoding="utf-8"?>
<!-- Generator: Adobe Illustrator 23.0.3, SVG Export Plug-In . SVG Version: 6.00 Build 0)  -->
<svg version="1.1" id="Слой_1" xmlns="http://www.w3.org/2000/svg" xmlns:xlink="http://www.w3.org/1999/xlink" x="0px" y="0px"
	 viewBox="0 0 1502.36 2130.05" style="enable-background:new 0 0 1502.36 2130.05;" xml:space="preserve">
<style type="text/css">
	.st0{fill:#CD5F76;}
	.st1{fill:url(#SVGID_1_);}
	.st2{fill:url(#SVGID_2_);}
	.st3{fill:url(#SVGID_3_);}
	.st4{fill:url(#SVGID_4_);}
	.st5{fill:url(#SVGID_5_);}
	.st6{fill:url(#SVGID_6_);}
</style>
<g>
	<g>
		<g>
			<path class="st0" d="M168.22,1768.12v37.5H93v37.72h56.43v37.5H93v37.72h75.23v37.39H55.38v-187.84H168.22z"/>
			<path class="st0" d="M321.72,1918.92c5.42,0,10.37-1.9,14.86-5.69c4.64-3.87,6.96-8.32,6.96-13.34c0-7.28-4.33-12.85-13-16.72
				c-2.87-1.32-6.77-2.67-11.72-4.06l-3.02-0.81l-2.79-0.81c-2.16-0.54-3.95-1.05-5.33-1.51c-12.23-4.18-22.22-10.64-29.96-19.39
				c-8.67-9.67-13-20.55-13-32.62c0-15.79,5.61-29.26,16.83-40.4c11.14-11.07,24.61-16.6,40.4-16.6c14.32,0,26.81,4.72,37.5,14.17
				c10.68,9.29,16.99,20.93,18.92,34.94l-37.38,7.89c0-5.18-1.86-9.64-5.58-13.35c-3.71-3.71-8.12-5.58-13.23-5.58
				c-5.27,0-9.76,1.86-13.47,5.58c-3.79,3.79-5.69,8.29-5.69,13.47c0,7.28,4.1,13.08,12.3,17.41c3.02,1.63,6.77,3.13,11.26,4.53
				c1.46,0.47,3.33,1.05,5.57,1.75l2.67,0.7l2.55,0.81c12.69,3.64,23.06,9.72,31.11,18.23c8.9,9.37,13.35,20.24,13.35,32.62
				c0,15.56-6.04,28.98-18.11,40.28c-11.84,11.14-25.73,16.72-41.67,16.72c-14.55,0-27.56-4.68-39.01-14.05
				c-11.46-9.44-18.26-21.13-20.43-35.06l37.38-7.89c0,5.04,2.33,9.48,6.97,13.35c4.49,3.72,9.48,5.58,14.97,5.58L321.72,1918.92z"
				/>
			<path class="st0" d="M606.05,1768.58v37.26h-45.97v149.88h-37.73v-149.88h-46.09v-37.26H606.05z"/>
			<path class="st0" d="M820.26,1768.12v37.5h-75.23v37.72h56.43v37.5h-56.43v37.72h75.23v37.39H707.41v-187.84H820.26z"/>
			<path class="st0" d="M1044.45,1768.58v37.26h-45.97v149.88h-37.73v-149.88h-46.09v-37.26H1044.45z"/>
			<path class="st0" d="M1145.82,1768.58h37.61v187.14h-37.61V1768.58z"/>
			<path class="st0" d="M1379.65,1957c-26.16-0.08-48.48-9.29-66.98-27.63c-18.58-18.58-27.86-40.94-27.86-67.1
				c0-26.09,9.29-48.49,27.86-67.22c18.65-18.65,40.97-27.98,66.98-27.98l-0.12,0.46c25.69,0,48.14,9.25,67.33,27.75l-26.81,26.82
				c-11.3-11.15-24.73-16.72-40.28-16.72c-15.79,0-29.18,5.57-40.17,16.72c-11.14,11.3-16.72,24.72-16.72,40.28
				c0,15.71,5.58,29.13,16.72,40.28c11.07,11.07,24.45,16.59,40.17,16.59c15.79,0,29.25-5.57,40.39-16.71l26.82,26.81
				C1428.4,1947.79,1405.96,1957,1379.65,1957z"/>
		</g>
	</g>
	<g>
		<g>
			<linearGradient id="SVGID_1_" gradientUnits="userSpaceOnUse" x1="4.527345e-03" y1="1016.964" x2="374.4921" y2="1016.964">
				<stop  offset="0" style="stop-color:#FFFFFF"/>
				<stop  offset="1" style="stop-color:#ECC3CC"/>
			</linearGradient>
			<path class="st1" d="M332.99,1203.96c2.49-0.08,4.97-0.24,7.46-0.32c-2.33,0.32-4.57,0.56-6.9,0.72
				c1.33,0.98,2.73,1.87,4.07,2.85c8.88-7.6,20.8-12.39,35.86-12.31c0.33,0,0.67,0.01,1,0.01c-13.16-21.25-20.77-45.21-25.38-69.93
				c-5.45-27.03-9.7-54.61-16.44-81.88c-3.37-13.55-6.9-27.11-11.15-40.5c-3.69-13.39-9.38-27.03-15.96-39.7
				c-6.98-12.59-15.32-24.46-24.94-35.12c-9.78-10.59-20.21-20.45-31.76-28.87c-22.94-17.16-48.52-30.31-74.9-40.34
				c-26.46-10.27-53.81-17.4-81.48-22.78c-27.75-5.21-55.57-8.5-84.2-8.98l-7.54-0.08l-0.24,7.38c-2,49.72,1.92,98.88,11.95,147.32
				c5.05,24.22,12.03,48.04,21.25,71.13c9.22,23.02,21.57,44.99,36.73,64.8c15.16,19.89,34.16,36.97,55.57,49.8
				c21.57,12.51,44.75,21.73,68.65,27.75c23.82,6.09,48.28,9.46,72.66,10.99c22.13,1.28,44.35,0.88,66.24-1.52
				C333.4,1204.36,333.15,1204.2,332.99,1203.96z"/>
			<linearGradient id="SVGID_2_" gradientUnits="userSpaceOnUse" x1="971.2522" y1="1046.0487" x2="1502.3622" y2="1046.0487">
				<stop  offset="0" style="stop-color:#FFFFFF"/>
				<stop  offset="1" style="stop-color:#ECC3CC"/>
			</linearGradient>
			<path class="st2" d="M1502.3,834.66c-33.52,7.86-67.84,10.59-102.09,11.55c-34.24,1.04-68.49,0-102.65-2.41
				c-34.32-2.41-69.61-3.45-104.49,1.44c-34.72,4.89-69.61,16.36-99.12,37.45c-29.27,21.33-50.36,52.69-62.31,85.89
				c-3.37,8.26-5.45,16.84-8.1,25.26c-2,8.5-4.33,17-5.77,25.58c-3.53,17.16-5.69,34.4-7.62,51.56
				c-3.93,34.4-5.93,68.73-11.23,102.41c-2.73,16.84-6.42,33.52-12.51,49.4c-3.13,8.1-6.98,16.12-11.63,23.5
				c1.68-1.2,3.37-2.33,5.13-3.37c-2.61,3.93-5.52,7.65-8.66,11.17c2.61,0.31,5.09,0.8,7.48,1.42c0.23-0.13,0.47-0.27,0.7-0.4
				c11.79-6.58,24.06-12.27,36.41-17.64c-10.5,6.57-21.07,13.06-31.09,19.95c0,0,0,0,0.01,0c14.51-6.57,29.41-12.1,44.48-17.07
				c32.4-10.75,65.84-18.28,99.52-23.58l25.34-3.37l25.42-2.33c17.08-1.6,33.84-1.6,51.32-2.81l26.22-1.6l26.06-3.77
				c4.33-0.48,8.66-1.44,12.91-2.57l12.91-3.13c8.66-1.76,17-4.89,25.34-7.94c33.28-12.27,64.24-32,88.29-58.38
				c23.9-26.38,41.86-57.74,52.93-91.02c3.45-8.02,5.21-16.68,7.78-25.02c2.41-8.34,4.97-16.76,6.34-25.34l4.97-25.58l3.37-25.82
				c2.49-17.16,2.65-34.48,3.85-51.72C1502.62,869.15,1502.3,851.91,1502.3,834.66z"/>
			<linearGradient id="SVGID_3_" gradientUnits="userSpaceOnUse" x1="479.4624" y1="389.389" x2="967.407" y2="389.389">
				<stop  offset="0" style="stop-color:#FFFFFF"/>
				<stop  offset="1" style="stop-color:#ECC3CC"/>
			</linearGradient>
			<path class="st3" d="M966.28,315.57c-1.84-23.5-5.69-46.83-11.39-69.77c0.88-3.45,1.76-6.82,2.57-10.18
				c0.08-0.24-0.08-0.48-0.32-0.48c-0.16-0.08-0.4,0.08-0.48,0.32c-0.72,2.73-1.52,5.37-2.33,8.1
				c-3.61-14.27-7.86-28.39-12.83-42.34c-7.22-20.61-15.8-40.66-25.66-60.15c-0.24-0.48-0.48-0.96-0.72-1.44
				c-7.62-15.16-15.96-29.99-24.86-44.43c-0.48-0.72-0.88-1.44-1.36-2.17c-0.24-0.4-0.48-0.8-0.72-1.12
				c-8.42-13.39-17.32-26.46-26.86-39.21c-0.16-0.32-0.4-0.72-0.72-1.04c-12.75-17.24-26.46-33.84-41.3-49.4
				c-0.16-0.16-0.24-0.32-0.4-0.48c-0.48,0.16-1.04,0.32-1.52,0.48c-26.3,8.82-51.97,19.33-76.99,31.2
				c-0.56,0.32-1.2,0.56-1.76,0.88c-11.79,5.61-23.34,11.47-34.8,17.64c-21.41,11.55-42.26,24.22-62.23,38.09
				c-0.56,0.32-1.2,0.72-1.76,1.2c-13.87,9.62-27.35,19.89-40.26,30.71c-8.02,6.82-15.8,13.87-23.26,21.17
				c-0.56,0.48-1.04,0.96-1.6,1.6c-6.9,6.66-13.55,13.63-20.05,20.77c-13.63,15.24-25.74,31.84-36.41,49.16
				c-0.16,0.32-0.4,0.56-0.56,0.88c-0.24,0.4-0.48,0.8-0.72,1.2c-10.59,17.32-18.61,35.85-25.1,54.93
				c-2.97,8.74-5.29,17.64-7.14,26.7c-0.4,2-0.8,4.01-1.12,6.09c-1.68,9.14-2.81,18.36-3.69,27.59
				c-1.84,41.06,1.93,83.32,13.07,122.78c10.91,39.7,30.79,75.94,56.3,108.66c24.7,33.2,55.17,63.67,76.34,101.45
				c10.26,17.88,18.2,37.13,23.26,57.1c0.24,0.88,0.4,1.68,0.64,2.57c1.2,5.13,2.25,10.34,3.13,15.56c0-4.57,0.24-9.22,0.4-13.79
				c0-0.48,0.4-0.8,0.8-0.8c0.48,0,0.8,0.4,0.8,0.8c-0.08,9.86-0.08,19.65,0.08,29.51c0.8,7.06,1.28,14.11,1.44,21.09
				c0.72-4.41,1.6-8.82,2.65-13.23c2.57-11.47,6.17-22.86,10.51-33.92c7.46-18.68,17.88-36.09,29.59-52.45
				c23.5-32.88,53.41-60.15,83.48-86.05c15.32-12.75,30.87-25.02,46.11-37.53c15.4-12.35,30.79-24.54,45.39-37.45
				c29.27-25.74,56.62-54.13,74.02-88.37c8.58-17.16,14.43-35.53,17.32-54.45c1.68-9.46,1.92-19.09,2.17-28.79L966.28,315.57z"/>
			<linearGradient id="SVGID_4_" gradientUnits="userSpaceOnUse" x1="325.6042" y1="750.3007" x2="540.7477" y2="750.3007">
				<stop  offset="0" style="stop-color:#FFFFFF"/>
				<stop  offset="1" style="stop-color:#ECC3CC"/>
			</linearGradient>
			<path class="st4" d="M521.37,722.23c-0.64-3.77-1.44-7.46-2.33-11.15c0.08,2.57,0.08,5.05,0.16,7.62
				c-12.51-20.53-33.68-36.73-57.42-49.4c-0.4-0.24-0.8-0.4-1.28-0.64c-19.09-10.1-39.78-17.88-58.86-23.82
				c-0.48-0.16-1.04-0.32-1.52-0.48c-30.55-9.46-56.86-14.03-65.76-15.4c-0.4,1.2-0.88,2.81-1.36,4.73c0,0-0.08,0.08,0,0.16
				c-0.4,1.2-0.72,2.49-1.04,3.93c-4.01,15.56-9.3,44.67-4.33,77.31c0.08,0.96,0.24,2,0.48,2.97c2.81,17.32,8.66,35.53,19.01,53.17
				c6.42,10.91,14.19,21.09,23.42,30.39c0.72,0.8,1.52,1.68,2.41,2.49c16.68,16.36,37.69,30.23,62.95,41.38
				c5.37,2.41,10.91,4.65,16.68,6.82c20.93,7.86,44.35,14.03,70.25,18.77c1.04,0.16,2.17,0.32,3.29,0.56
				c-0.32-0.88-0.24-1.76,0.24-2.65c0.08-0.16,1.04-2.25,2.49-6.01C536.13,843.97,555.05,782.54,521.37,722.23z"/>
			<linearGradient id="SVGID_5_" gradientUnits="userSpaceOnUse" x1="893.9996" y1="719.6893" x2="1074.9028" y2="719.6893">
				<stop  offset="0" style="stop-color:#FFFFFF"/>
				<stop  offset="1" style="stop-color:#ECC3CC"/>
			</linearGradient>
			<path class="st5" d="M1073.26,624.48v-0.24c-0.08-0.16-0.08-0.24-0.08-0.32c-0.08-1.04-0.56-1.84-1.28-2.41
				c-0.8-0.72-1.92-1.12-3.13-0.96c-0.08,0-0.08,0-0.16,0c-70.65,9.06-127.51,40.1-156.14,85.33
				c-19.01,29.91-23.42,63.11-12.91,96.07l0.16-0.16c0,0.32,0,0.56,0.08,0.8c0.08,0.24,0.08,0.48,0.24,0.72
				c0.08,0.32,0.24,0.56,0.48,0.8c0.24,0.4,0.48,0.64,0.88,0.88c0.08,0.08,0.16,0.16,0.24,0.24c1.12,0.72,2.33,1.36,3.45,2
				c13.95,7.7,27.67,11.63,41.62,11.63c27.35,0,55.33-15.24,86.61-46.35C1084.81,721.27,1074.47,632.98,1073.26,624.48z"/>
		</g>
		<g>
			<g>
				<g>
					<path class="st0" d="M8.29,834.66c61.74,82,126.09,162.18,195.35,237.78c34.81,37.57,70.79,74.24,110.74,105.9
						c40.26,31.26,84.11,57.68,130.74,78.18c46.44,21.05,95.3,36.06,143.66,54.61c24.11,9.4,48.14,20.01,70.6,34.01
						c22.46,13.91,43.06,31.54,59.76,52.39c16.8,20.79,29.67,44.33,39.89,68.65c10.19,24.4,17.07,49.77,23.07,75.2
						c11.27,51.05,16.21,102.87,19.14,154.52c0.38,6.63-4.69,12.32-11.33,12.69c-6.63,0.38-12.32-4.69-12.69-11.33
						c0-0.06-0.01-0.12-0.01-0.17l-0.01-0.17c-1.89-50.83-5.78-101.69-15.7-151.17c-5.3-24.6-11.44-49.07-20.61-72.28
						c-9.2-23.13-20.78-45.26-35.89-64.74c-15.04-19.53-33.64-36.13-54.52-49.65c-20.87-13.59-43.8-24.32-67.3-34
						c-47.11-19.15-96.34-35.34-143.08-57.64c-46.97-21.75-91.17-49.57-131.37-82.08c-39.95-32.96-75.38-70.55-109.56-108.91
						C131.2,999.3,68.43,917.87,8.29,834.66z"/>
				</g>
				<g>
					<path class="st0" d="M340.46,1203.6c-24.18,3.09-48.71,3.7-73.13,2.26c-24.42-1.46-48.82-4.87-72.7-10.96
						c-23.88-6.05-47.07-15.23-68.62-27.74c-21.44-12.86-40.45-29.9-55.57-49.79c-15.16-19.86-27.47-41.8-36.76-64.83
						c-9.2-23.07-16.19-46.92-21.23-71.09C2.42,932.98-1.47,883.86,0.49,834.13l0.29-7.4l7.54,0.12
						c28.63,0.46,56.41,3.72,84.17,8.96c27.66,5.32,55.05,12.52,81.48,22.73c26.42,10.09,51.96,23.21,74.88,40.34
						c11.54,8.45,22.03,18.35,31.8,28.86c9.63,10.69,17.93,22.56,24.92,35.15c6.56,12.69,12.27,26.32,15.95,39.71
						c4.28,13.35,7.83,26.92,11.2,40.51c6.66,27.21,10.92,54.85,16.42,81.86c5.05,27.08,13.63,53.36,29.26,76.06
						c15.77,22.51,36.68,41.2,58.45,58.38c-22.87-15.67-44.93-33.31-62.09-55.75c-17.07-22.5-27.53-49.68-33.64-76.9
						c-6.34-27.26-11.32-54.47-18.64-81.05c-3.7-13.27-7.56-26.49-12.13-39.47c-4.08-13.31-9.6-25.24-16.06-37.05
						c-6.9-11.47-14.81-22.3-23.8-32.24c-9.23-9.71-19.09-18.89-30.06-26.76c-21.75-15.94-46.22-28.27-71.73-37.74
						c-51.04-18.94-106.3-27.73-160.43-29.96l7.83-7.28c-2.32,47.56,1.02,96.36,10.34,143.37c9.62,46.87,25.54,93.12,53.36,131.76
						c13.83,19.29,31.3,35.83,51.26,48.59c20.2,12.63,42.56,21.86,65.56,28.91C242.79,1201.74,291.89,1206.14,340.46,1203.6z"/>
				</g>
				<g>
					<path class="st0" d="M47.89,1068.28c8.14,6.02,16.37,11.8,24.97,17.02l12.81,7.9l13.13,7.31
						c17.66,9.43,35.89,17.69,54.66,24.39c9.27,3.71,18.93,6.21,28.45,9.18c9.7,2.23,19.33,4.99,29.2,6.51
						c4.92,0.83,9.83,1.89,14.79,2.54l14.95,1.49c9.98,1.51,20.03,0.89,30.18,1.81c-20.05,2.34-40.6,3.14-60.83,0.25
						c-10.23-0.65-20.11-3.42-30.17-5.25c-9.82-2.81-19.74-5.32-29.29-9c-19.16-7.04-37.76-15.72-55.01-26.6
						C78.45,1095.08,62.02,1082.83,47.89,1068.28z"/>
				</g>
				<g>
					<path class="st0" d="M16.19,962.77c4.99,7.51,11.34,14,17.58,20.44c6.2,6.49,12.58,12.81,19.37,18.65
						c13.45,11.8,27.43,22.92,42.45,32.46c15.03,9.52,30.99,17.32,47.63,23.57c8.47,2.63,16.94,5.52,25.79,6.8
						c8.71,2.47,17.7,2.25,26.74,3.59c-18.04,1.86-36.59,0.36-54.38-4.5c-17.7-5.06-34.49-13.01-50.09-22.7
						c-15.4-10.02-29.68-21.66-42.39-34.78C36.41,993.08,24.04,979.28,16.19,962.77z"/>
				</g>
				<g>
					<path class="st0" d="M77.47,841.17c8.51,5.08,16.12,11.52,23.66,18c7.22,6.82,14.14,14,20.57,21.62
						c12.87,15.23,23.83,32.16,32.34,50.26c8.32,18.14,15.33,37.06,18.69,56.75c2.27,9.72,2.94,19.69,4.08,29.54
						c0.62,4.92,0.27,9.93,0.37,14.87c0.04,4.95-0.02,9.9-0.15,14.82c-2.6-19.62-4.98-39.06-10.31-57.86
						c-4.68-18.92-11.68-37.13-19.91-54.68c-8.08-17.66-18.51-34.15-29.93-49.91C105.31,868.92,92.26,854.23,77.47,841.17z"/>
				</g>
				<g>
					<path class="st0" d="M184.41,870.71c13.01,14.9,22.21,32.82,29.57,51.2c7.4,18.46,12.06,37.9,15.17,57.52
						c2.43,19.71,3.68,39.61,2.19,59.38c-0.32,9.89-2.06,19.68-3.05,29.48c-1.78,9.72-3.8,19.38-6.05,28.94
						c0.45-9.87,1.69-19.58,2.14-29.35c0.19-9.78,1.23-19.5,0.8-29.24c-0.13-4.87-0.22-9.73-0.21-14.59
						c-0.03-4.86-0.59-9.7-0.85-14.54c-0.32-9.71-1.81-19.3-2.89-28.93c-2.84-19.17-7.16-38.09-13.01-56.59
						c-2.83-9.29-6.38-18.35-10.35-27.24C194.04,887.78,189.59,879.08,184.41,870.71z"/>
				</g>
				<g>
					<path class="st0" d="M280.94,938.48c6.15,17.88,10.43,36.32,14.01,54.88c3.57,18.57,6.04,37.38,7.22,56.31
						c0.94,18.93,1.31,37.98-0.97,56.89c-2.22,18.86-6.05,37.7-13.63,55.07c0.91-4.66,1.87-9.26,2.93-13.81
						c1.13-4.53,1.35-9.28,2.07-13.88c0.81-4.59,1.3-9.23,1.58-13.9c0.28-4.66,0.94-9.27,0.9-13.95c0.8-18.63,0.22-37.29-0.88-55.92
						c-0.96-18.66-3.2-37.24-5.28-55.86c-1.02-9.32-2.36-18.61-3.78-27.89C283.95,957.08,282.36,947.82,280.94,938.48z"/>
				</g>
				<g>
					<path class="st0" d="M770.09,1607.26c-0.06-2.04-0.09-4.38,0-6.18l0.32-4.52c0.18-3.04,0.46-6,0.81-8.9
						c0.58-5.87,1.33-11.69,2.26-17.45c0.79-5.8,1.76-11.55,2.93-17.25c1.14-5.71,2.04-11.47,3.49-17.11
						c4.93-22.74,11.8-44.99,19.6-66.86c15.82-43.66,37.71-85.27,65.74-122.42c28.03-37.14,62.52-69.33,101.23-94.77
						c19.28-13.29,38.9-24.11,58.33-36.01c19.33-11.92,38.7-23.79,57.79-36.12c38.29-24.47,76.12-49.68,113.24-75.92
						c37.17-26.16,73.84-53.07,109.5-81.26c35.68-28.16,70.71-57.21,104.1-88.09c33.23-30.99,65.29-63.49,92.88-99.75
						c-26.79,36.86-58.2,70.14-90.82,101.93c-32.78,31.68-67.24,61.57-102.39,90.59c-35.13,29.06-71.3,56.85-108,83.9
						c-36.65,27.14-74.04,53.26-111.92,78.66c-18.88,12.79-38.06,25.14-57.21,37.54c-19.12,12.29-39.14,23.97-57.06,36.98
						c-36.74,25.32-69.07,56.87-95.14,93.03c-26.06,36.17-46.17,76.5-60.42,118.74c-7.02,21.15-13.15,42.63-17.38,64.5
						c-1.28,5.42-2,10.94-2.98,16.41c-1,5.47-1.8,10.96-2.43,16.46c-0.77,5.5-1.35,10.98-1.77,16.45c-0.28,2.75-0.47,5.47-0.56,8.11
						l-0.26,6.36l-0.13,3.09c-0.27,6.56-5.81,11.65-12.37,11.38C775.21,1618.53,770.28,1613.42,770.09,1607.26z"/>
				</g>
				<g>
					<path class="st0" d="M1502.3,834.66c-16.23,5.85-33.2,9.52-50.2,12.55c-17.03,3-34.2,5.14-51.43,6.83
						c-34.49,2.88-69.17,3.52-103.76,2.18c-34.3-0.93-68.24-1.57-101.53,3.99c-33.12,5.19-65.38,16.1-91.92,35.41
						c-26.64,19.14-45.9,47.2-57.63,78.38c-12.49,31.04-18.06,64.87-23.29,98.61c-4.91,33.87-8.61,68.28-15.9,102.27
						c-3.93,16.92-8.92,33.74-16.28,49.56c-7.25,15.8-17.55,30.52-31.28,41.08c12.58-11.89,21.26-26.98,27.37-42.76
						c6.06-15.87,9.78-32.55,12.46-49.37c5.34-33.71,7.33-68.01,11.21-102.39c1.94-17.19,4.08-34.44,7.62-51.57
						c1.49-8.6,3.81-17.09,5.81-25.64c2.62-8.42,4.72-16.98,8.09-25.22c11.94-33.22,33.05-64.58,62.35-85.89
						c29.47-21.06,64.34-32.54,99.11-37.45c34.89-4.94,70.12-3.89,104.49-1.47c34.13,2.39,68.38,3.45,102.62,2.47
						C1434.42,845.28,1468.76,842.5,1502.3,834.66z"/>
				</g>
				<g>
					<path class="st0" d="M936.2,1283.53c13.24-11.09,28.09-20.16,43.27-28.44c15.16-8.4,31.03-15.42,47.06-22.1
						c32.32-12.67,65.94-22.06,100.12-28.49c34.05-6.93,69.17-8.96,103.42-11.3c33.87-1.32,67.38-7.51,98.67-18.96
						c31.34-11.3,59.98-29.44,82.72-53.67c22.91-24.05,40.28-53.49,52.32-85.09c3.67-7.63,5.63-15.96,8.44-23.96
						c2.67-8.06,5.37-16.12,7.19-24.46l6.17-24.83l4.58-25.24c3.64-16.76,4.99-33.9,7.44-50.91c1.24-8.51,1.51-17.11,2.34-25.68
						l2.36-25.74c-0.03,17.21,0.34,34.5-0.46,51.74c-1.26,17.21-1.42,34.56-3.9,51.72l-3.3,25.8l-5,25.59
						c-1.38,8.61-3.9,16.97-6.33,25.35c-2.59,8.33-4.31,16.95-7.81,25.02c-11.06,33.22-29.03,64.63-52.92,91.03
						c-24.05,26.35-55.03,46.11-88.28,58.35c-8.34,3.04-16.66,6.18-25.34,7.91l-12.88,3.13c-4.28,1.12-8.58,2.08-12.95,2.57
						l-26.1,3.81l-26.22,1.62c-17.43,1.15-34.2,1.15-51.27,2.75l-25.46,2.38l-25.35,3.34c-33.68,5.26-67.06,12.82-99.53,23.54
						C996.76,1251.01,965.04,1264.68,936.2,1283.53z"/>
				</g>
				<g>
					<path class="st0" d="M1100.78,1174.99c13.65,0.46,27.26,0.88,40.88,0.71c13.6,0.14,27.21,0,40.79-0.58
						c27.14-1.12,54.26-2.61,81.14-6.09c26.86-3.43,53.57-8.09,79.74-15.02c6.57-1.62,12.93-3.93,19.42-5.87
						c3.22-1.04,6.49-1.96,9.67-3.11l9.4-3.82c6.22-2.64,12.88-4.48,18.77-7.86c6.03-3.11,12.12-6.14,18.29-9.14
						c-22.35,15.83-47.72,27.1-73.81,35.71c-26.2,8.45-53.33,13.41-80.51,17.06c-27.25,3.32-54.68,4.62-82.05,4.28
						C1155.15,1180.84,1127.78,1179.28,1100.78,1174.99z"/>
				</g>
				<g>
					<path class="st0" d="M1178.36,1121.87c13.28,2.19,26.62,3.51,40,3.88c6.68,0.23,13.36,0.29,20.02,0.29
						c6.67-0.34,13.34-0.4,19.97-0.97c26.55-2,52.89-6.67,78.13-14.89c25.27-7.93,49.84-18.55,72.44-32.6
						c23.21-13.21,43.58-30.64,63.97-48.24c-4.56,4.92-9.19,9.82-13.9,14.65c-4.77,4.76-9.15,10.01-14.5,14.15
						c-10.46,8.55-20.66,17.56-32.27,24.65c-22.3,15.58-47.49,26.73-73.36,35.03c-6.57,1.78-12.98,4.17-19.67,5.45l-19.98,4.15
						l-20.23,2.57c-6.75,0.7-13.56,0.84-20.33,1.2C1231.57,1131.91,1204.27,1129.4,1178.36,1121.87z"/>
				</g>
				<g>
					<path class="st0" d="M1249.75,1069.71c11.44-1.51,22.8-3.15,34.01-5.65c11.26-2.14,22.4-4.8,33.42-7.82
						c22.01-6.13,43.61-13.56,64.37-22.86c20.98-8.88,40.52-20.69,59.24-33.58l13.75-10.16c4.37-3.64,8.5-7.58,12.81-11.34
						l6.52-5.61l5.9-6.23c3.91-4.19,7.9-8.33,11.98-12.45c-13.29,18.77-28.67,36.58-47.24,50.72
						c-18.27,14.37-38.31,26.72-59.69,35.97c-21.32,9.33-43.48,16.72-66.19,21.51C1295.95,1067,1272.86,1070.09,1249.75,1069.71z"/>
				</g>
				<g>
					<path class="st0" d="M1030.52,1220.23c10.91-36.75,25.48-72.35,41.68-107.13c16.3-34.77,35.21-68.28,55.72-100.81
						c21.42-31.94,44.88-62.57,71.17-90.69c26.86-27.59,56.71-52.26,89.58-72.01c-15,11.99-30.96,22.49-44.51,36.03
						c-14.66,12.2-27.33,26.51-40.54,40.17c-25.06,28.67-48.28,58.88-68.98,90.87c-20.88,31.87-39.53,65.16-56.91,99.13
						c-8.74,16.96-16.99,34.19-24.76,51.64C1044.86,1184.75,1037.55,1202.42,1030.52,1220.23z"/>
				</g>
				<g>
					<path class="st0" d="M1110.34,1168.63c14.68-30.62,31.12-60.36,48.31-89.66c17.23-29.28,35.78-57.78,55.09-85.78
						c19.88-27.58,40.46-54.79,63.71-79.77c11.64-12.45,23.82-24.45,37.03-35.29c13.34-10.57,27.53-20.55,43.47-26.59
						c-15.16,7.69-28.56,18.11-40.9,29.56c-12.5,11.29-24.05,23.62-35.01,36.44c-22.04,25.53-42.5,52.47-61.75,80.26
						c-19.74,27.45-38.11,55.89-56.4,84.38c-9.18,14.23-18.13,28.61-26.98,43.06C1127.85,1139.57,1119.17,1154.13,1110.34,1168.63z"
						/>
				</g>
				<g>
					<path class="st0" d="M1288.66,1039.71c-0.35-9.78,0.96-19.53,2.34-29.25c1.86-9.63,4.17-19.2,7.16-28.59
						c5.95-18.77,14.38-36.84,25.18-53.38c10.95-16.38,23.24-32.09,38.15-45.01c7.02-6.91,15.14-12.54,22.85-18.56
						c8.04-5.6,16.6-10.44,24.99-15.33c-15.23,12.23-30.42,24.18-43.53,38.32c-13.56,13.63-25.24,28.95-35.71,44.92
						c-10.64,15.93-18.97,33.29-26.14,51.1C1296.94,1001.81,1291.62,1020.45,1288.66,1039.71z"/>
				</g>
				<g>
					<path class="st0" d="M1001.95,1178.3c5.61-32.46,14.6-64.29,25.32-95.49c10.84-31.17,24.04-61.57,39.57-90.8
						c7.96-14.51,16.53-28.71,25.96-42.33c9.46-13.59,19.27-27.02,30.7-39.09c11.31-12.12,23.21-23.76,36.44-33.76
						c13.33-9.83,27.42-18.65,42.5-25.28c-28.61,16.33-53.39,38.17-74.31,63.12c-21,24.9-39.02,52.29-54.25,81.16
						c-15.91,28.53-28.86,58.65-40.85,89.11c-6.01,15.24-11.51,30.68-16.61,46.27C1011.08,1146.72,1006.36,1162.45,1001.95,1178.3z"
						/>
				</g>
				<g>
					<path class="st0" d="M819.27,1.58c-39.92,13.24-78.49,30.52-115.48,50.39c-36.99,19.91-72.17,43.15-104.2,70.04
						c-15.96,13.5-30.98,28.04-44.92,43.51c-13.9,15.52-26.17,32.37-37,50.01c-10.87,17.66-19.18,36.7-25.84,56.18
						c-6.66,19.54-9.98,39.98-11.9,60.41c-1.85,41.05,1.92,83.31,13.02,122.73c10.91,39.69,30.86,75.96,56.33,108.65
						c24.74,33.21,55.17,63.72,76.38,101.46c10.61,18.72,18.88,38.84,23.87,59.68c4.82,20.87,7.04,42.17,6.72,63.32
						c-0.01,0.44-0.37,0.8-0.81,0.79c-0.41-0.01-0.75-0.33-0.79-0.73c-3.86-41.88-15.7-82.81-38.57-117.3
						c-22.21-34.89-52.48-64.12-79.44-97.36c-13.24-16.8-25.55-34.67-35.72-53.82c-10.09-19.19-17.79-39.64-23.29-60.53
						c-10.65-42.06-13.43-84.93-10.48-127.94c2.41-21.43,6.33-42.79,13.67-63.09c7.33-20.22,16.38-39.86,27.97-57.92
						c11.55-18.04,24.52-35.13,39.05-50.75c14.57-15.57,30.17-30.1,46.65-43.51c33.24-26.49,69.34-49.03,107.07-68.11
						c37.74-19.05,76.83-35.39,117.26-47.66c0.42-0.13,0.87,0.11,1,0.53C819.95,0.99,819.69,1.44,819.27,1.58z"/>
				</g>
				<g>
					<path class="st0" d="M819.6,0.23c28.21,27.93,52.75,59.3,74.69,92.39c21.82,33.17,40.49,68.55,54.73,105.8
						c14.12,37.28,23.7,76.39,27.68,116.28l1.72,30.03c-0.06,10.07-0.08,20.34-1.69,30.4c-2.58,20.21-8.49,40.06-17.28,58.49
						c-17.68,37.06-45.68,67.43-74.93,94.53c-14.8,13.51-30.13,26.21-45.55,38.69c-15.51,12.35-31.12,24.46-46.34,36.9
						c-15.39,12.23-30.46,24.75-44.83,37.98c-14.36,13.23-27.62,27.49-40.04,42.43c-24.91,29.86-42.69,65.44-51.52,103.96
						c-0.09,0.43-0.52,0.71-0.95,0.62c-0.4-0.09-0.67-0.47-0.63-0.87c2.18-19.77,7.32-39.27,14.66-57.98
						c7.49-18.69,17.86-36.15,29.56-52.51c23.53-32.85,53.47-60.09,83.56-86c15.28-12.76,30.8-25.06,46.1-37.51
						c15.37-12.35,30.8-24.54,45.38-37.53c29.22-25.7,56.57-54.07,74.01-88.36c8.58-17.12,14.46-35.51,17.28-54.46
						c1.73-9.45,1.92-19.06,2.18-28.72l-1.08-29.24c-3.09-38.92-11.66-77.41-24.81-114.36c-13.01-37.02-30.51-72.51-51.26-105.99
						c-20.85-33.39-44.47-65.32-71.75-93.82l-0.03-0.03c-0.31-0.32-0.29-0.83,0.02-1.13C818.8-0.08,819.3-0.07,819.6,0.23z"/>
				</g>
				<g>
					<path class="st0" d="M819.76,1.19c-31.5,65.63-55.69,134.57-76.39,204.23c-5.15,17.43-10.47,34.82-14.82,52.47
						c-4.4,17.64-9.61,35.06-13.3,52.87l-11.87,53.19l-10.02,53.56c-11.88,71.66-20.59,143.77-26.05,216.13
						c-4.26,36.1-4.91,72.41-7.34,108.69c-1.59,18.15-1.25,36.32-1.78,54.51c-0.66,18.2-1.01,36.41-1.93,54.67l0,0.05
						c-0.02,0.44-0.4,0.78-0.84,0.76c-0.41-0.02-0.73-0.35-0.76-0.74c-2.56-36.36-5.63-72.87-5.86-109.42
						c0.06-36.54-0.09-73.17,2.53-109.67c3.41-73.17,15.76-145.58,29.43-217.34l11.26-53.67l13.11-53.23
						c4.1-17.81,9.73-35.22,14.54-52.84c4.76-17.64,10.49-34.99,16.05-52.38c22.84-69.35,49.1-137.71,82.63-202.59
						c0.2-0.39,0.69-0.55,1.08-0.34c0.39,0.2,0.54,0.67,0.36,1.06L819.76,1.19z"/>
				</g>
				<g>
					<path class="st0" d="M654.63,726.44c-0.68,66.76,3.83,133.55,12.42,199.63c4.19,33.05,9.64,65.94,16.69,98.44
						c3.31,16.3,7.91,32.25,11.8,48.37c2.26,7.97,4.85,15.86,7.26,23.79c2.46,7.91,4.76,15.87,7.77,23.61
						c10.83,31.34,24.43,61.61,38.63,91.64l21.74,45.07c7.06,15.21,14.06,30.5,20.51,46.18c12.29,31.47,22.09,64.9,23.49,99.14
						c0.91,8.51,0.15,17.05-0.17,25.54c-0.22,4.25-0.3,8.49-0.65,12.72l-1.89,12.58c-2.12,16.82-7.07,33.01-11.55,49.14
						c-0.12,0.43-0.56,0.68-0.99,0.56c-0.4-0.11-0.64-0.5-0.58-0.9l0.01-0.05c5.55-32.96,8.52-66.15,4.67-98.66
						c-3.66-32.52-13.68-63.83-27.15-93.9c-6.45-15.16-13.55-30.17-20.75-45.18c-7.18-15.06-14.14-30.28-21.1-45.57
						c-13.43-30.79-26.32-61.99-36.36-94.19c-2.86-7.93-5.01-16.08-7.32-24.18c-2.25-8.11-4.69-16.18-6.79-24.33
						c-3.56-16.45-7.83-32.76-10.78-49.29c-6.33-32.99-11.01-66.23-14.43-99.57c-6.51-66.71-8.88-133.75-6.06-200.62
						c0.02-0.44,0.39-0.79,0.84-0.77C654.3,725.62,654.64,726.01,654.63,726.44z"/>
				</g>
				<g>
					<path class="st0" d="M483.8,278.7c0.72,33.19,5.65,66.32,16.39,97.59c10.59,31.29,26.47,60.6,46.27,86.97
						c19.66,26.55,43.12,49.9,65.4,74.66c10.96,12.55,22.04,25.21,31.33,39.33c4.46,7.18,8.66,14.57,11.74,22.49
						c2.86,7.99,4.82,16.32,4.98,24.72c0,0.22-0.17,0.4-0.39,0.41c-0.2,0-0.38-0.15-0.41-0.35c-2.57-16.47-10.74-31-20.5-44.07
						c-9.95-13.02-21.12-25.17-32.64-37.09c-22.92-23.92-45.46-48.87-64.7-76.34c-19.47-27.27-34.92-57.53-44.88-89.5
						c-9.86-32.04-13.73-65.57-13.38-98.82c0-0.22,0.18-0.4,0.41-0.4C483.62,278.3,483.79,278.48,483.8,278.7z"/>
				</g>
				<g>
					<path class="st0" d="M518.92,204.38c-1.17,14.91-1.46,29.89,0.08,44.72c1.66,14.81,4.74,29.41,9.32,43.53
						c9.16,28.3,24.44,54.2,42.55,77.68c18.16,23.57,39.62,44.31,59.77,66.6c9.92,11.28,19.99,22.64,28.33,35.45
						c8.21,12.53,15.09,27.91,12.38,43.22c-0.04,0.22-0.25,0.36-0.47,0.33c-0.2-0.03-0.34-0.22-0.33-0.42
						c0.16-7.47-1.64-14.68-4.7-21.28c-2.86-6.7-7.04-12.8-11.46-18.65c-8.98-11.67-19.13-22.54-29.61-33.18
						c-20.78-21.43-41.27-43.72-59.03-68.21c-17.79-24.38-32.7-51.27-41.25-80.35c-4.16-14.55-6.75-29.49-7.89-44.51
						c-1.02-15.05-0.19-30.12,1.52-45.02c0.03-0.22,0.22-0.38,0.44-0.35C518.78,203.96,518.94,204.16,518.92,204.38z"/>
				</g>
				<g>
					<path class="st0" d="M578.65,135.37c-8.2,24.93-10.73,51.97-3.59,77.04c7.06,25.1,22.02,47,37.66,67.9
						c15.79,20.9,33.09,41.11,46.56,64.18c13.35,23,23.82,48.18,27.44,74.5c0.03,0.22-0.12,0.42-0.34,0.45
						c-0.2,0.03-0.38-0.1-0.44-0.28c-8.09-25.14-19.23-48.7-33.5-70.49c-13.98-21.93-29.65-42.97-44.91-64.6
						c-15.12-21.54-29.84-44.5-36.35-70.66c-6.34-26.23-2.51-53.68,6.71-78.32c0.08-0.21,0.31-0.31,0.52-0.23
						C578.61,134.94,578.71,135.17,578.65,135.37z"/>
				</g>
				<g>
					<path class="st0" d="M643.9,84.79c-8.01,16.31-9.4,35.24-3.91,52.17c5.13,17.07,15.15,32.27,26.02,46.52
						c10.99,14.27,23.57,27.38,34.26,42.36c5.18,7.59,10.36,15.33,14.16,23.93c3.84,8.45,6.18,18.26,4.27,27.43
						c-0.05,0.22-0.26,0.36-0.48,0.31c-0.18-0.04-0.31-0.22-0.32-0.39c-0.46-9.06-3.84-17.28-8.45-24.8
						c-4.58-7.54-9.86-14.73-15.59-21.66c-11.24-13.99-22.53-28.34-33.03-43.39c-10.42-15.01-20.12-31.16-24.71-49.26
						c-2.2-9.02-2.91-18.45-1.66-27.62c1.21-9.18,4.36-17.96,8.74-25.97c0.11-0.19,0.35-0.27,0.54-0.16
						C643.92,84.36,643.99,84.59,643.9,84.79z"/>
				</g>
				<g>
					<path class="st0" d="M736.07,213.75c-7.64-14.02-12.58-29.3-16.22-44.81c-3.56-15.57-4.48-31.65-4.44-47.59
						c0.2-15.97,2.17-31.9,5.97-47.37c4.15-15.43,10.98-29.95,19.5-43.23c0.12-0.19,0.37-0.24,0.55-0.12
						c0.18,0.11,0.22,0.37,0.12,0.55c-7.56,13.78-13.25,28.43-16.27,43.72c-2.93,15.28-4.06,30.83-3.46,46.35
						c0.82,15.54,3.45,30.83,5.9,46.15c2.49,15.34,5.61,30.62,9.1,46.05c0.06,0.22-0.07,0.44-0.28,0.5
						C736.35,213.99,736.16,213.9,736.07,213.75z"/>
				</g>
				<g>
					<path class="st0" d="M710.71,305.25c17.22-18.41,33.87-37.13,49.34-56.8c15.54-19.57,30.85-39.36,44.37-60.42
						c13.71-20.95,25.04-43.38,34.83-66.41c10.1-22.99,16.61-47.32,21.76-71.94c0.03-0.22,0.24-0.37,0.46-0.34
						c0.21,0.03,0.36,0.25,0.34,0.46c-4.1,24.84-9.62,49.66-18.82,73.29c-9.14,23.57-19.9,46.65-33.1,68.3
						c-12.94,21.77-27.07,42.99-43.67,62.19c-16.79,18.98-34.59,37.2-54.99,52.29c-0.18,0.13-0.43,0.09-0.56-0.08
						C710.55,305.62,710.58,305.39,710.71,305.25z"/>
				</g>
				<g>
					<path class="st0" d="M693.42,381.57c25.51-16.23,48.73-35.58,69.69-57.01c20.94-21.39,40.86-43.99,57.49-69.08
						c4.35-6.13,7.89-12.79,11.89-19.16l5.83-9.66c1.83-3.29,3.44-6.69,5.17-10.03l10.22-20.15l8.68-20.88l4.39-10.43
						c1.39-3.5,2.43-7.14,3.67-10.7l7.15-21.5c4.4-14.45,7.49-29.28,11.3-43.93c0.03-0.22,0.24-0.37,0.46-0.34
						c0.21,0.03,0.35,0.27,0.33,0.48c-3.3,14.78-5.87,29.77-9.77,44.43l-6.42,21.86c-1.12,3.63-2.04,7.33-3.32,10.91l-4.04,10.66
						l-8.2,21.31l-9.79,20.64c-1.66,3.43-3.2,6.92-4.97,10.29l-5.64,9.94c-3.87,6.56-7.29,13.41-11.54,19.75
						c-16.12,25.9-35.1,50.22-57.27,71.33c-22.36,20.78-46.96,39.66-74.94,52c-0.2,0.09-0.44,0-0.53-0.2
						C693.16,381.9,693.26,381.67,693.42,381.57z"/>
				</g>
				<g>
					<path class="st0" d="M674.25,490.62c33.49-16.49,63.81-38.54,90.86-63.78c27.1-25.19,51.72-53.12,72.48-83.97
						c4.95-7.85,9.59-15.9,14.4-23.85c2.3-4.03,4.97-7.87,6.97-12.07l6.14-12.52c3.97-8.41,8.47-16.59,12.01-25.19l10.12-26.04
						c1.66-4.35,3.52-8.64,5.01-13.05l4-13.4l8-26.82c4.54-18.09,7.86-36.49,11.86-54.76c0.03-0.22,0.23-0.38,0.45-0.35
						c0.22,0.03,0.37,0.26,0.35,0.47c-3.47,18.37-6.28,36.92-10.32,55.21l-7.27,27.17l-3.64,13.6c-1.37,4.48-3.12,8.84-4.66,13.28
						l-9.65,26.47c-3.39,8.75-7.75,17.11-11.58,25.69l-5.94,12.8c-1.94,4.29-4.55,8.23-6.79,12.36c-4.7,8.15-9.23,16.41-14.08,24.48
						c-20.28,31.71-44.09,61.5-72.51,86.45c-28.5,24.61-60.32,46.19-95.95,58.58c-0.21,0.07-0.44-0.04-0.51-0.25
						C673.95,490.94,674.07,490.71,674.25,490.62z"/>
				</g>
				<g>
					<path class="st0" d="M661.72,595.83c35.04-19.46,68.24-41.9,99.24-66.99c31-25.05,60.34-52.24,86.35-82.49
						c13.46-14.78,24.75-31.26,36.66-47.29l15.84-25.41c2.56-4.28,5.41-8.41,7.74-12.82l6.76-13.37
						c19.51-35.03,31.65-73.46,42.39-112.03c0.04-0.22,0.26-0.36,0.47-0.32c0.21,0.04,0.35,0.28,0.31,0.49
						c-9.71,38.87-20.89,77.86-39.59,113.67l-6.55,13.62c-2.26,4.5-5.05,8.71-7.54,13.09l-15.48,25.98
						c-11.69,16.41-22.79,33.32-36.09,48.53c-25.61,31.13-54.21,60.09-86.3,84.66c-32.25,24.23-66.62,46-103.87,61.42
						c-0.2,0.08-0.44-0.01-0.52-0.22C661.44,596.16,661.54,595.93,661.72,595.83z"/>
				</g>
				<g>
					<path class="st0" d="M695.76,1097.41c-18.83-47.12-46.38-89.52-78.86-127.76C584.64,931.23,549,895.44,512.03,860.9
						c-36.98-34.51-75.45-67.72-110.72-104.48c-17.49-18.46-34.09-38.04-47.47-59.83c-6.86-10.78-12.28-22.46-16.56-34.48
						c-4.15-12.12-6.06-24.88-6.26-37.62c-0.01-0.33,0.26-0.6,0.59-0.61c0.32-0.01,0.6,0.29,0.61,0.61
						c0.6,12.59,2.87,25.05,7.33,36.82c4.58,11.68,10.25,22.96,17.34,33.36c13.83,21.02,30.81,39.82,48.72,57.56
						c35.81,35.6,74.96,67.81,112.88,101.55c37.92,33.66,75.97,67.99,107.73,108.28c31.36,40.21,58.33,85.34,70.68,134.99
						c0.08,0.32-0.12,0.65-0.44,0.73C696.17,1097.85,695.87,1097.69,695.76,1097.41z"/>
				</g>
				<g>
					<path class="st0" d="M721,1168.74c-5.68-27.54-5.21-56.02-1.91-84c3.46-28.02,11.17-55.5,21.72-81.76
						c11.06-26.02,24.54-51.25,41.92-73.61l6.26-8.56l6.89-8.05l13.8-16.06l28.81-30.31l114.96-121.38l115.37-120.94
						c0.23-0.24,0.61-0.25,0.85-0.02c0.24,0.23,0.24,0.61,0.02,0.85L957.85,749.1L845.6,872.86l-27.93,31.04l-12.99,16l-6.48,8
						l-5.83,8.48c-3.88,5.65-7.93,11.19-11.67,16.92l-10.44,17.69c-3.77,5.73-6.47,12.05-9.67,18.1c-3.17,6.07-6.22,12.2-8.69,18.59
						c-11.34,24.93-19.41,51.35-24.51,78.38c-2.43,13.53-4.5,27.2-5.21,40.99c-1.07,13.77-1.15,27.67,0.02,41.48l0,0.05
						c0.03,0.33-0.22,0.62-0.55,0.65C721.34,1169.24,721.06,1169.03,721,1168.74z"/>
				</g>
				<g>
					<path class="st0" d="M946.69,818.89c-15.06,0-29.93-4.6-45.05-13.69c-1.9-1.14-2.51-3.61-1.37-5.5c1.14-1.91,3.6-2.51,5.5-1.37
						c39.47,23.72,75.93,14.31,121.92-31.46c50.2-49.96,37.73-140.89,37.6-141.81c-0.32-2.19,1.2-4.23,3.4-4.54
						c2.2-0.38,4.22,1.21,4.54,3.39c0.56,3.89,13.15,95.86-39.88,148.64C1002.09,803.66,974.09,818.89,946.69,818.89z"/>
				</g>
				<g>
					<path class="st0" d="M903.7,805.78c-1.69,0-3.26-1.07-3.81-2.76c-10.9-33.31-6.55-66.89,12.56-97.11
						c28.64-45.27,85.61-76.4,156.3-85.39c2.23-0.23,4.2,1.28,4.48,3.47c0.28,2.2-1.28,4.2-3.47,4.48
						c-67.31,8.56-123.58,39.11-150.53,81.72c-17.79,28.13-21.85,59.37-11.72,90.34c0.69,2.1-0.46,4.37-2.56,5.06
						C904.54,805.71,904.11,805.78,903.7,805.78z"/>
				</g>
				<g>
					<path class="st0" d="M537.18,881.47c-0.2,0-0.4-0.02-0.6-0.04c-97.63-14.66-163.73-50.41-196.46-106.23
						c-41.91-71.48-13.47-148.86-12.24-152.13c0.78-2.08,3.09-3.13,5.16-2.33c2.07,0.78,3.12,3.09,2.34,5.16
						c-0.29,0.76-28.29,77.19,11.7,145.32c31.46,53.59,95.62,88,190.69,102.28c2.19,0.33,3.7,2.37,3.37,4.56
						C540.84,880.05,539.13,881.47,537.18,881.47z"/>
				</g>
				<g>
					<path class="st0" d="M529.91,874.72c-0.59,0-1.19-0.13-1.75-0.41c-1.99-0.97-2.82-3.37-1.85-5.36
						c0.36-0.74,35.55-74.93-5.22-147.26c-40.87-72.51-188.5-93.04-189.99-93.24c-2.19-0.29-3.74-2.31-3.44-4.51
						c0.29-2.19,2.29-3.74,4.51-3.44c6.23,0.83,153.07,21.26,195.91,97.25c42.88,76.08,5.82,153.93,5.44,154.71
						C532.82,873.89,531.39,874.72,529.91,874.72z"/>
				</g>
				<g>
					<path class="st0" d="M398.76,639.66c5.37,8.93,9.36,18.59,12.76,28.44c3.39,9.87,5.89,20.07,7.29,30.48
						c1.23,10.42,1.73,21.03,0.21,31.5c-1.58,10.43-4.79,20.7-10.39,29.5c3.33-9.88,5.18-19.85,5.78-29.94
						c0.39-10.11-0.25-20.22-1.57-30.27c-1.21-10.08-3.48-20.02-5.76-29.99C404.67,659.45,401.85,649.56,398.76,639.66z"/>
				</g>
				<g>
					<path class="st0" d="M459.52,663.56c4.68,10.87,7.92,22.29,10.54,33.84c2.69,11.55,4.23,23.37,4.74,35.29
						c0.37,11.89-0.01,23.98-3.05,35.66c-2.86,11.61-7.75,23.04-15.98,31.67c6.19-10.12,9.59-21.25,11.45-32.58
						c1.86-11.35,2.07-22.96,1.58-34.51c-0.35-11.58-1.69-23.14-3.27-34.71C463.88,686.67,461.82,675.14,459.52,663.56z"/>
				</g>
				<g>
					<path class="st0" d="M519.03,711.05c2.72,11.04,4.17,22.32,5.01,33.66c0.9,11.34,0.77,22.78-0.26,34.18
						c-1.24,11.36-3.25,22.84-7.91,33.54c-2.33,5.31-5.2,10.46-8.98,14.93c-3.9,4.32-8.69,8.01-14.16,9.7
						c9.9-5.83,15.39-15.99,18.82-26.28c3.4-10.43,5.18-21.42,6.25-32.47c1.14-11.06,1.43-22.24,1.64-33.46
						C519.56,733.64,519.28,722.39,519.03,711.05z"/>
				</g>
				<g>
					<path class="st0" d="M322.88,711.05c6.35,5.56,12.95,10.6,19.61,15.48c6.7,4.82,13.58,9.34,20.73,13.37
						c7.06,4.18,14.43,7.81,22,11.03c7.54,3.36,15.39,5.92,23.41,8.65c-8.4-0.42-16.95-1.52-25.03-4.24
						c-8.18-2.42-16-5.97-23.39-10.23C345.52,736.56,332.2,725.23,322.88,711.05z"/>
				</g>
				<g>
					<path class="st0" d="M364.51,801.19c15.52,1.09,30.68,2.4,45.87,2.66c7.58,0.14,15.14-0.05,22.7-0.53
						c7.53-0.7,15.05-1.62,22.68-3.3c-6.77,3.86-14.34,6.45-22.06,7.95c-7.74,1.47-15.61,1.93-23.44,1.89
						C394.65,809.4,379.05,806.91,364.51,801.19z"/>
				</g>
				<g>
					<path class="st0" d="M423.8,844.23c13.07,1.56,25.73,2.62,38.48,2.56c12.76,0.16,25.33-1.15,38.47-2.56
						c-11.79,6-25.23,8.59-38.48,8.57C449.03,852.7,435.58,850.37,423.8,844.23z"/>
				</g>
				<g>
					<path class="st0" d="M940.69,761.79c-5.6-16.43-7.07-34.22-4.98-51.66c1.27-8.7,3.49-17.34,7.22-25.38
						c3.86-7.99,9.4-15.13,16.16-20.55c-5.08,7.08-8.87,14.55-11.82,22.35c-2.64,7.93-4.47,16.07-5.59,24.38
						c-1.18,8.3-1.5,16.74-1.65,25.21C940.01,744.61,940.1,753.15,940.69,761.79z"/>
				</g>
				<g>
					<path class="st0" d="M989.48,709.4c-1.2-6.54-2.4-13.39-1.89-20.24c0.28-6.86,1.67-13.69,3.97-20.2
						c2.4-6.46,5.46-12.73,9.68-18.17c3.94-5.63,9.07-10.28,14.47-14.32c-3.73,5.68-7.44,11.1-10.52,16.85
						c-3.21,5.65-5.81,11.58-7.96,17.64c-2.26,6.03-3.8,12.32-4.99,18.72C990.97,696.08,990.59,702.66,989.48,709.4z"/>
				</g>
				<g>
					<path class="st0" d="M965.74,734.84c8.7,0.33,17.23-0.34,25.67-1.32c8.41-1.12,16.77-2.52,24.9-4.86
						c8.14-2.24,16.21-4.85,24.01-8.23c7.89-3.21,15.49-7.12,23.3-11.03c-6.45,5.82-13.46,11.22-21.28,15.26
						c-7.65,4.37-16.02,7.37-24.48,9.81c-8.52,2.32-17.33,3.53-26.13,3.72C982.95,738.4,974.08,737.47,965.74,734.84z"/>
				</g>
				<g>
					<path class="st0" d="M932.56,770.56c7.94,3.27,16.09,5.42,24.26,7.01c8.19,1.48,16.46,2.4,24.72,2.11
						c8.24-0.19,16.53-0.96,24.64-2.87c8.19-1.65,16.15-4.36,24.33-7.1c-7.08,4.81-14.74,9.12-23.1,11.63
						c-8.24,2.94-17.04,4.06-25.79,4.35C964.17,785.88,946.29,781.09,932.56,770.56z"/>
				</g>
				<g>
					<linearGradient id="SVGID_6_" gradientUnits="userSpaceOnUse" x1="1215.1254" y1="564.5175" x2="1357.9503" y2="564.5175">
						<stop  offset="0" style="stop-color:#FFFFFF"/>
						<stop  offset="1" style="stop-color:#ECC3CC"/>
					</linearGradient>
					<path class="st6" d="M1357.95,582.05c-14.6,9.38-29.99,17.96-46.59,22.13c-16.36,4.81-34.24,3.93-48.68-4.25
						c-14.43-8.1-25.18-21.81-32.88-36.89c-6.66-12.91-11.39-27.03-14.68-41.14c12.43,4.73,25.26,8.18,38.81,9.22
						c4.01,0.24,8.18,0.16,12.27-0.4l11.47-1.68c7.54-1.2,15.08-2.17,22.53-2.49c14.92-0.96,30.31,2.73,40.34,13.95
						C1350.49,551.66,1355.06,567.06,1357.95,582.05z"/>
					<path class="st0" d="M1357.95,582.05c-13.55,10.91-28.63,20.37-45.47,26.06c-16.68,5.77-36.33,5.93-52.77-2.57
						c-16.52-8.34-28.15-23.42-36.49-39.05c-8.26-15.88-14.19-32.64-17.32-50.36l-1.28-7.06l6.74,2.89
						c13.63,5.93,28.47,10.75,43.06,12.03c3.69,0.32,7.3,0.24,10.83-0.16l11.47-1.6c7.7-1.04,15.56-1.52,23.42-1.52
						c7.94,0,16.04,0.8,23.66,3.61c7.62,2.73,14.52,7.54,19.57,13.79C1353.06,551.02,1356.67,566.74,1357.95,582.05
						c-2.89-15-7.46-30.39-17.4-41.54c-10.02-11.23-25.42-14.92-40.34-13.95c-7.46,0.32-15,1.28-22.53,2.49l-11.47,1.68
						c-4.09,0.56-8.26,0.64-12.27,0.4c-13.55-1.04-26.38-4.49-38.81-9.22c3.29,14.11,8.02,28.23,14.68,41.14
						c7.7,15.08,18.44,28.79,32.88,36.89c14.43,8.18,32.32,9.06,48.68,4.25C1327.96,600.02,1343.35,591.44,1357.95,582.05z"/>
				</g>
				<g>
					<path class="st0" d="M1209.75,515.54c6.41,12.83,16.54,23.08,28.15,30.21c11.65,7.2,25.05,11.06,38.73,12.29
						c6.7,0.75,14.07,0.93,21.26,1.65c7.19,0.82,14.4,1.72,21.47,3.43c7.09,1.6,14.1,3.69,20.79,6.6c6.5,3.16,13.3,6.56,17.79,12.33
						c-5.67-4.37-12.39-6.78-19.13-8.64c-6.73-1.93-13.66-3.12-20.59-4.15c-14.05-2.08-27.64-2.15-42.41-3.26
						c-14.65-1.47-29.42-6.11-41.4-15.1C1222.35,542.25,1213.23,529.53,1209.75,515.54z"/>
				</g>
			</g>
		</g>
	</g>
	<g>
		<g>
			<path class="st0" d="M336.3,2128.84c-12.35-0.04-22.9-4.39-31.63-13.05c-8.77-8.77-13.16-19.34-13.16-31.69
				c0-12.32,4.39-22.9,13.16-31.74c8.81-8.81,19.35-13.21,31.63-13.21l-0.05,0.22c12.13,0,22.73,4.37,31.8,13.1l-12.66,12.66
				c-5.34-5.26-11.68-7.89-19.02-7.89c-7.46,0-13.78,2.63-18.97,7.89c-5.26,5.33-7.89,11.68-7.89,19.02
				c0,7.42,2.63,13.76,7.89,19.02c5.23,5.22,11.55,7.84,18.97,7.84c7.46,0,13.81-2.63,19.08-7.89l12.66,12.66
				C359.33,2124.49,348.73,2128.84,336.3,2128.84z"/>
			<path class="st0" d="M505.81,2039.87v70.72h35.52v17.65h-53.28v-88.37H505.81z"/>
			<path class="st0" d="M661.28,2039.87h17.76v88.37h-17.76V2039.87z"/>
			<path class="st0" d="M855.5,2088.71v-49.06h17.82v90.4l-53.28-50.76v49.06h-17.76V2038L855.5,2088.71z"/>
			<path class="st0" d="M996.55,2039.87h17.76v88.37h-17.76V2039.87z"/>
			<path class="st0" d="M1179.05,2128.84c-12.35-0.04-22.9-4.39-31.63-13.05c-8.77-8.77-13.16-19.34-13.16-31.69
				c0-12.32,4.39-22.9,13.16-31.74c8.81-8.81,19.35-13.21,31.63-13.21l-0.05,0.22c12.13,0,22.73,4.37,31.8,13.1l-12.66,12.66
				c-5.33-5.26-11.68-7.89-19.02-7.89c-7.46,0-13.78,2.63-18.97,7.89c-5.26,5.33-7.89,11.68-7.89,19.02
				c0,7.42,2.63,13.76,7.89,19.02c5.22,5.22,11.55,7.84,18.97,7.84c7.46,0,13.81-2.63,19.08-7.89l12.66,12.66
				C1202.07,2124.49,1191.48,2128.84,1179.05,2128.84z"/>
		</g>
	</g>
</g>
</svg>
